HIERARCHY
ROOT Hips
{
  OFFSET -69.4423 88.0299 51.6846
  CHANNELS 6 Xposition Yposition Zposition Zrotation Xrotation Yrotation
  JOINT Spine
  {
    OFFSET 12.0259 -0.162853 1.93176e-005
    CHANNELS 3 Zrotation Xrotation Yrotation
    JOINT Spine1
    {
      OFFSET 15.3169 -0.0121909 0
      CHANNELS 3 Zrotation Xrotation Yrotation
      JOINT Spine2
      {
        OFFSET 15.3176 -0.0121922 0
        CHANNELS 3 Zrotation Xrotation Yrotation
        JOINT Neck
        {
          OFFSET 19.9142 1.56236 0
          CHANNELS 3 Zrotation Xrotation Yrotation
          JOINT Head
          {
            OFFSET 6.92646 0 0
            CHANNELS 3 Zrotation Xrotation Yrotation
            End Site
            {
              OFFSET 20.7666 0 0
            }
          }
          JOINT LeftShoulder
          {
            OFFSET -4.94072 -1.14703 8.14416
            CHANNELS 3 Zrotation Xrotation Yrotation
            JOINT LeftArm
            {
              OFFSET 14.108 0 -2.74767e-005
              CHANNELS 3 Zrotation Xrotation Yrotation
              JOINT LeftForeArm
              {
                OFFSET 28.5802 -0.0783412 -0.0284884
                CHANNELS 3 Zrotation Xrotation Yrotation
                JOINT LeftHand
                {
                  OFFSET 27.092 0 0
                  CHANNELS 3 Zrotation Xrotation Yrotation
                  End Site
                  {
                    OFFSET 9.55928 -0.186424 0.145352
                  }
                }
              }
            }
          }
          JOINT RightShoulder
          {
            OFFSET -7.15748 -1.33027 -6.24935
            CHANNELS 3 Zrotation Xrotation Yrotation
            JOINT RightArm
            {
              OFFSET 14.108 0 1.82997e-005
              CHANNELS 3 Zrotation Xrotation Yrotation
              JOINT RightForeArm
              {
                OFFSET 28.5802 -0.0707221 2.30684e-005
                CHANNELS 3 Zrotation Xrotation Yrotation
                JOINT RightHand
                {
                  OFFSET 27.092 0 -1.30073e-005
                  CHANNELS 3 Zrotation Xrotation Yrotation
                  End Site
                  {
                    OFFSET 9.55929 -0.186417 -0.145354
                  }
                }
              }
            }
          }
        }
      }
    }
  }
  JOINT LeftUpLeg
  {
    OFFSET 0.00499725 -0.534999 8.837
    CHANNELS 3 Zrotation Xrotation Yrotation
    JOINT LeftLeg
    {
      OFFSET 39.9035 -0.00124594 0.000252775
      CHANNELS 3 Zrotation Xrotation Yrotation
      JOINT LeftFoot
      {
        OFFSET 39.6689 0 0
        CHANNELS 3 Zrotation Xrotation Yrotation
        JOINT LeftToe
        {
          OFFSET 10.1624 13.6296 0
          CHANNELS 3 Zrotation Xrotation Yrotation
          End Site
          {
            OFFSET 8.38147 0 0
          }
        }
      }
    }
  }
  JOINT RightUpLeg
  {
    OFFSET 0.00499725 -0.535 -8.837
    CHANNELS 3 Zrotation Xrotation Yrotation
    JOINT RightLeg
    {
      OFFSET 39.9036 -0.000268477 0.000106433
      CHANNELS 3 Zrotation Xrotation Yrotation
      JOINT RightFoot
      {
        OFFSET 39.6689 1.17892e-005 0
        CHANNELS 3 Zrotation Xrotation Yrotation
        JOINT RightToe
        {
          OFFSET 10.1624 13.6296 0
          CHANNELS 3 Zrotation Xrotation Yrotation
          End Site
          {
            OFFSET 8.38147 0 0
          }
        }
      }
    }
  }
}
MOTION
Frames:	10
Frame Time:	0.0333333
-60.4141 88.4574 -50.3461 -93.9587 55.0501 -179.059 1.30524 0.408085 1.00552 2.60324 0.839402 2.00172 2.60321 0.839371 2.00172 -14.5387 -3.25223 -13.5889 48.7385 -1.87826 14.5018 -167.932 -5.28879 -95.9025 -21.1048 1.86631 84.9895 -20.3929 1.99199 -13.5836 11.7284 -84.1528 14.0123 -167.938 -7.73867 71.9682 -14.8753 0.870018 -83.4691 -21.995 -2.52672 13.757 1.95028 78.1494 -1.79296 -17.8277 -2.8397 -174.062 -42.1357 0.781994 -0.645747 -1.25886 0.345519 0.127749 90 9.54166e-015 -0 -4.45753 -3.51992 -172.431 -23.6934 -0.703215 0.288986 4.67069 6.07763 -0.152433 90 1.43125e-014 6.36111e-015 
-60.4829 88.4708 -49.983 -93.3267 54.7264 -179.833 1.48069 0.527217 0.993362 2.95219 1.08029 1.97307 2.95219 1.08029 1.97306 -14.4671 -3.34643 -13.9939 49.3679 -1.61123 15.1428 -168.066 -5.48266 -96.2961 -21.7705 2.06392 84.6817 -20.7549 2.04261 -13.7818 11.5071 -84.3373 13.7597 -168.081 -7.96185 71.6271 -15.5458 0.558576 -83.5977 -22.2637 -2.58022 13.8947 2.12128 78.8094 -1.95792 -20.8442 -3.16726 -173.584 -46.2523 0.690035 -0.518787 -4.79613 2.76557 0.356494 90 6.36111e-015 3.18055e-015 -3.46735 -3.60603 -171.939 -22.8308 -0.733604 0.276833 4.09271 5.86272 -0.0442885 90 3.18055e-015 1.27222e-014 
-60.3884 88.4951 -49.5348 -92.9615 54.5368 179.729 1.6392 0.762207 0.960505 3.26585 1.55197 1.89922 3.26585 1.55196 1.89921 -14.3939 -3.54921 -13.827 49.7026 -1.72458 15.4814 -168.175 -5.65277 -96.1284 -22.6841 2.41345 84.4714 -21.2941 2.12602 -14.0625 13.3305 -85.0014 15.6255 -168.166 -8.1342 71.864 -16.0529 0.286789 -83.5814 -22.4584 -2.62204 13.994 2.41397 79.5885 -2.24914 -23.1609 -3.14197 -173.398 -48.8091 0.636391 -0.47926 -4.70042 4.21504 0.601389 90 -3.33958e-014 3.18055e-015 -2.38747 -3.72018 -171.652 -21.865 -0.756686 0.27802 4.32053 6.23434 -0.0338332 90 -2.8625e-014 -2.22639e-014 
-60.2301 88.555 -49.0146 -93.068 54.3613 -179.928 1.7058 0.910404 0.870906 3.39826 1.84675 1.71481 3.39824 1.84672 1.7148 -14.002 -3.68023 -13.525 50.0342 -1.97297 15.2623 -168.563 -5.6449 -95.864 -22.296 2.60468 84.6244 -21.6186 2.18186 -14.235 13.3287 -85.0928 15.6031 -168.533 -8.08997 72.1597 -15.5322 -0.0216962 -83.7983 -22.5568 -2.64008 14.0361 2.32424 79.1371 -2.16221 -24.9193 -2.53891 -173.507 -48.4838 0.627658 -0.536454 -3.51289 5.2923 0.780396 90 -1.74931e-014 -1.90833e-014 -1.58251 -3.60169 -171.785 -20.779 -0.771083 0.286806 4.23443 6.23436 -0.0305888 90 3.18055e-015 3.18055e-015 
-59.9356 88.5773 -48.4712 -93.3253 53.962 -179.542 1.731 1.03586 0.798437 3.44825 2.09576 1.56575 3.44825 2.09575 1.56574 -13.6678 -3.79368 -13.5403 50.3049 -1.94694 15.4658 -168.941 -5.74228 -95.8955 -21.8893 3.19448 84.8496 -21.8751 2.21715 -14.3636 13.1305 -85.3932 15.3112 -168.879 -8.12418 72.1555 -14.6707 -0.175987 -84.0596 -22.2287 -2.57173 13.8534 2.23599 78.5236 -2.07583 -26.0297 -2.12454 -173.794 -45.7811 0.635333 -0.664711 -2.81522 5.03476 0.774136 90 4.77083e-015 -0 -0.841913 -3.8759 -171.915 -19.9283 -0.781197 0.296111 4.33348 6.30998 -0.0519274 90 3.18055e-015 9.54166e-015 
-59.613 88.6094 -47.7896 -93.5015 53.407 -179.27 1.88792 1.02205 0.99625 3.75871 2.0767 1.95889 3.7587 2.07669 1.95888 -14.3012 -3.32323 -13.9279 50.8504 -1.95084 14.2247 -168.257 -5.48033 -96.3087 -22.2333 2.59553 86.2684 -22.0642 2.26911 -14.4966 21.9322 -86.7884 24.3983 -168.178 -7.80883 71.6685 -14.5835 -0.157543 -82.607 -21.7689 -2.4823 13.6112 2.30082 78.6385 -2.13385 -26.515 -1.51224 -174.139 -41.4726 0.649832 -0.84538 -3.11988 3.62345 0.618301 90 4.77083e-015 -0 -0.0395132 -3.83744 -171.889 -19.095 -0.787627 0.312646 4.45499 6.65611 -0.0552663 90 -3.18055e-015 3.18055e-015 
-59.1893 88.5494 -47.0938 -94.0137 52.9292 -178.679 1.9366 1.05937 0.981873 3.8558 2.15164 1.92803 3.85579 2.15165 1.92802 -13.8022 -3.69478 -14.3831 50.0277 -2.12819 15.1994 -168.884 -5.90176 -96.7116 -22.6591 2.9051 86.5542 -21.8563 2.23473 -14.3739 25.6723 -87.0193 28.2301 -168.785 -8.18007 71.2398 -13.9891 -0.204549 -82.55 -21.5271 -2.43233 13.4718 2.22433 78.036 -2.04118 -26.9285 -1.14196 -174.614 -36.0607 0.653024 -1.0671 -4.49432 2.21808 0.408326 90 6.36111e-015 3.18055e-015 0.923975 -3.71842 -171.894 -17.8052 -0.793328 0.342294 4.32699 7.18348 0.000966404 90 -4.77083e-015 -1.27222e-014 
-58.7444 88.4963 -46.365 -94.6756 52.6281 -178.087 1.94516 1.1521 0.962264 3.86421 2.33657 1.88566 3.8642 2.33655 1.88566 -13.9915 -3.59282 -14.4226 50.436 -2.0197 15.0284 -168.68 -5.88521 -96.702 -22.2144 3.22068 86.4885 -21.1488 2.11309 -13.9848 16.8747 -85.8764 19.3431 -168.584 -8.11426 71.1877 -13.8131 -0.282989 -82.4674 -21.2168 -2.36082 13.2907 1.99835 77.9325 -1.84649 -27.0542 -0.485285 -174.921 -29.8015 0.639541 -1.3144 -5.34673 1.44828 0.292482 90 -7.95139e-016 -3.18055e-015 1.25159 -3.65582 -171.891 -17.3204 -0.796766 0.35023 4.2089 7.08038 -0.0103328 90 -1.59028e-015 -3.18055e-015 
-58.2211 88.3777 -45.5461 -95.2923 52.4436 -177.753 1.94616 1.21776 1.01872 3.86494 2.46967 1.99638 3.86494 2.46967 1.99637 -13.7587 -3.63239 -14.2537 50.0822 -2.2158 14.7888 -168.879 -5.8602 -96.4883 -20.0571 3.16404 86.5205 -19.9899 1.93044 -13.3679 9.00155 -83.0249 11.1813 -168.797 -8.03881 71.2982 -14.1394 -0.506653 -82.1565 -21.0536 -2.32325 13.1951 1.86398 77.6533 -1.72082 -27.0501 -0.355717 -175.036 -23.8053 0.594635 -1.53473 -5.9876 1.24705 0.287971 90 -1.19271e-015 -9.54166e-015 2.26446 -3.9448 -171.631 -16.1082 -0.802645 0.366905 4.25287 7.05302 -0.0472281 90 0 9.54166e-015 
-57.559 88.2876 -44.6027 -95.9346 52.6538 -177.338 1.94276 1.33365 1.04983 3.85443 2.70239 2.05483 3.85442 2.70239 2.05482 -13.5638 -3.6913 -14.3358 49.8378 -2.33932 14.7896 -169.078 -5.91775 -96.527 -18.8111 3.17541 86.6132 -19.1873 1.8112 -12.9342 7.75564 -82.086 9.84821 -169 -8.05084 71.1806 -13.9304 -0.344546 -81.9569 -20.7895 -2.26823 13.043 1.77773 77.2922 -1.63436 -26.7051 -0.569072 -175.218 -18.1093 0.526801 -1.7214 -6.43301 0.778559 0.205036 90 1.15295e-014 -0 3.24475 -4.32443 -171.592 -15.058 -0.807508 0.375952 4.27173 6.44549 -0.128333 90 4.77083e-015 9.54166e-015 
